<svg width="84" height="83" viewBox="0 0 84 83" fill="none" xmlns="http://www.w3.org/2000/svg">
<path d="M72.6246 4.38248C74.1026 4.38248 75.7222 5.05199 77.0093 6.33264C79.2417 8.5592 79.6173 11.79 77.853 13.5528L71.3283 20.0605C75.7591 26.1444 78.3733 33.6257 78.3733 41.7211C78.3733 62.098 61.8137 78.6144 41.3836 78.6144C20.9535 78.6144 4.39393 62.098 4.39393 41.7211C4.39393 21.3443 20.9535 4.8278 41.3836 4.8278C49.5741 4.8278 57.1396 7.48431 63.2702 11.9774L69.7733 5.49423C70.5185 4.74487 71.5346 4.38248 72.6246 4.38248ZM72.6246 0C70.3275 0 68.2091 0.850699 66.6634 2.3924L62.7098 6.33878C56.2867 2.46918 48.986 0.442241 41.3836 0.442241C30.3295 0.442241 19.9374 4.73566 12.1226 12.5332C4.30464 20.3308 0 30.6958 0 41.7211C0 52.7464 4.30464 63.1114 12.1226 70.909C19.9374 78.7066 30.3295 83 41.3836 83C52.4377 83 62.8298 78.7066 70.6447 70.909C78.4626 63.1145 82.7673 52.7464 82.7673 41.7211C82.7673 34.2153 80.772 26.9982 76.9662 20.6318L80.9598 16.6485C82.758 14.855 83.6079 12.2906 83.2969 9.60952C83.0228 7.26933 81.8959 5.00592 80.1192 3.23389C78.0562 1.17931 75.325 0 72.6246 0Z" fill="white"/>
<path fill-rule="evenodd" clip-rule="evenodd" d="M49.3908 23.5869C48.3193 23.5869 47.5248 23.9954 47.5248 25.0856V26.311H49.711V29.1027H47.5248V38.5494H43.836V29.1057H42.4258V26.3141H43.836V25.0887C43.836 22.0022 45.8405 20.6387 48.6857 20.6387C49.0952 20.6387 49.6187 20.6847 49.9358 20.7308V23.6146C49.7541 23.5869 49.5725 23.5869 49.3908 23.5869ZM26.9467 38.823C23.9415 38.823 21.3242 36.7101 21.3242 32.4197C21.3242 28.1294 23.9415 26.041 26.9467 26.041C28.5171 26.041 29.4963 26.3604 30.3153 26.8794L29.1545 29.5359C28.7665 29.2411 28.1753 29.0814 27.5379 29.0814C26.1277 29.0814 25.2163 30.3068 25.2163 32.3737C25.2163 34.4405 26.217 35.6905 27.5379 35.6905C28.1753 35.6905 28.7665 35.5308 29.1545 35.2359L30.3153 37.9846C29.4963 38.5282 28.5171 38.823 26.9467 38.823ZM45.5474 59.627H29.4004V63.1956H45.5474V59.627ZM30.8594 34.7814C30.8594 37.3919 32.7715 38.823 36.642 38.823C38.6003 38.823 40.4909 38.4145 41.4239 37.9385V30.5586C41.4239 27.3125 39.7396 26.041 36.3926 26.041C34.4804 26.041 32.6391 26.4955 31.546 26.9255L32.4544 29.4223C33.3412 29.0599 34.7514 28.673 35.9369 28.673C37.2116 28.673 37.8952 29.1275 37.8952 30.1041V30.5801C34.1818 30.7859 30.8594 31.5322 30.8594 34.7814ZM34.345 34.6924C34.345 33.2397 35.8691 33.0125 37.8952 32.9203H37.8983V36.0559C37.6458 36.145 37.0546 36.2371 36.5311 36.2371C35.1856 36.2371 34.345 35.6905 34.345 34.6924ZM55.9911 26.041C59.5629 26.041 61.475 28.4242 61.475 31.784V31.7841C61.475 32.171 61.475 32.5334 61.435 32.9203L53.7864 33.9184C54.082 35.2605 55.2428 35.9177 56.767 35.9177C57.9987 35.9177 59.3165 35.6229 60.228 35.1684L61.2749 37.9385C60.1571 38.4606 58.3127 38.823 56.4714 38.823C52.213 38.823 50.1191 36.0529 50.1191 32.4197C50.1191 28.673 52.3022 26.041 55.9911 26.041ZM55.9018 28.673C54.5808 28.673 53.5555 29.582 53.5339 31.6028L57.8601 31.0561C57.8601 29.5144 57.1088 28.673 55.9018 28.673ZM61.5189 22.3158C61.3803 21.8397 60.743 21.5449 60.0378 21.5449C59.3543 21.5449 58.5568 21.7722 58.0118 22.3158L56.4414 25.2886H58.9694L61.5189 22.3158ZM65.0535 35.9551C65.7586 35.9551 66.396 36.2499 66.5315 36.7259L63.985 39.7018H61.457L63.0274 36.7259C63.5724 36.1823 64.3699 35.9551 65.0535 35.9551ZM21.9056 53.1012C19.3561 53.1012 18.2846 51.7162 18.2846 48.9675V43.4487H16.8281V40.6571H18.2846V36.7598C18.2846 36.7598 19.4793 36.4589 20.4584 36.8735C21.9056 37.4846 21.9487 38.3138 21.9487 38.3138V40.6601H24.0887V43.4518H21.9487V48.6973C21.9487 49.5387 22.4506 49.809 23.1558 49.809C23.4975 49.809 23.8609 49.7169 24.0887 49.6063V52.6928C23.6823 52.8985 22.7924 53.1012 21.9056 53.1012ZM24.9785 49.1271C24.9785 51.7376 26.8907 53.1687 30.7611 53.1687C32.7164 53.1687 34.607 52.7603 35.543 52.2842V44.9043C35.543 41.6582 33.8587 40.3867 30.5117 40.3867C28.5996 40.3867 26.7552 40.8412 25.6621 41.2712L26.5735 43.768C27.4603 43.4056 28.8736 43.0187 30.056 43.0187C31.3308 43.0187 32.0143 43.4732 32.0143 44.4498V44.9258C28.304 45.1316 24.9785 45.8809 24.9785 49.1271ZM28.461 49.0381C28.461 47.5854 29.9852 47.3582 32.0113 47.266H32.0143V50.4016C31.7619 50.4938 31.1707 50.5828 30.6472 50.5828C29.3047 50.5828 28.461 50.0362 28.461 49.0381ZM39.2051 44.5373C40.3413 44.5373 41.2989 43.6743 41.2989 42.6056C41.2989 41.5368 40.3413 40.6523 39.2051 40.6523C38.0658 40.6523 37.1328 41.5368 37.1328 42.6056C37.1328 43.6743 38.0658 44.5373 39.2051 44.5373ZM37.3379 45.5723H41.0944V57.8107H37.3379V45.5723ZM48.1744 53.1597C47.6263 53.1597 46.992 53.0706 46.6472 52.9539V57.9261H42.8906V41.4188C43.8698 40.9182 45.6926 40.5312 47.6694 40.5312C51.7431 40.5312 53.9509 42.8008 53.9509 46.8885C53.954 50.6844 51.9741 53.1597 48.1744 53.1597ZM47.7403 43.3966C47.3061 43.3966 46.875 43.4887 46.6472 43.5778V50.1623C46.8535 50.2544 47.3307 50.3435 47.7618 50.3435C49.3568 50.3435 50.1974 48.9369 50.1974 46.8915C50.1974 44.6005 49.3106 43.3966 47.7403 43.3966ZM55.457 41.2712C56.5501 40.8412 58.3945 40.3867 60.3067 40.3867C63.6506 40.3867 65.3349 41.6582 65.3349 44.9043V52.2842C64.4019 52.7603 62.5144 53.1687 60.5561 53.1687C56.6856 53.1687 54.7734 51.7376 54.7734 49.1271C54.7734 45.8809 58.0989 45.1316 61.8093 44.9258V44.4498C61.8093 43.4732 61.1257 43.0187 59.8509 43.0187C58.6685 43.0187 57.2583 43.4056 56.3684 43.768L55.457 41.2712ZM60.4421 50.5798C60.9687 50.5798 61.5599 50.4907 61.8093 50.3986H61.8062V47.2629C59.7801 47.3551 58.2559 47.5823 58.2559 49.035C58.2559 50.0362 59.0996 50.5798 60.4421 50.5798Z" fill="white"/>
</svg>
